<?xml version="1.0" encoding="UTF-8"?>
<svg width="35px" height="35px" viewBox="0 0 35 35" version="1.1" xmlns="http://www.w3.org/2000/svg" xmlns:xlink="http://www.w3.org/1999/xlink">
    <!-- Generator: Sketch 61.2 (89653) - https://sketch.com -->
    <title>Group 12</title>
    <desc>Created with Sketch.</desc>
    <defs>
        <polygon id="path-1" points="0.2998656 0.4355712 9.707328 0.4355712 9.707328 7.7254272 0.2998656 7.7254272"></polygon>
        <polygon id="path-3" points="0.497664 0.243648 7.78752 0.243648 7.78752 9.6512832 0.497664 9.6512832"></polygon>
    </defs>
    <g id="Page-1" stroke="none" stroke-width="1" fill="none" fill-rule="evenodd">
        <g id="Group-12">
            <g id="Group-30-Copy-3" fill="#2F8A04" fill-rule="nonzero">
                <g id="Group-29-Copy">
                    <circle id="Oval-Copy" cx="17.5" cy="17.5" r="17.5"></circle>
                </g>
            </g>
            <g id="Group-10" transform="translate(4.000000, 4.000000)">
                <g id="Group-13" transform="translate(16.398374, 9.216000)">
                    <mask id="mask-2" fill="white">
                        <use xlink:href="#path-1"></use>
                    </mask>
                    <g id="Clip-12"></g>
                    <path d="M5.2580736,0.4355712 C7.0454016,0.4355712 8.2336896,0.8727552 8.8229376,1.7488512 C9.4121856,2.6237952 9.7076736,3.7590912 9.7076736,5.1518592 C9.7076736,5.7238272 9.6892416,6.2595072 9.6535296,6.7606272 C9.6172416,7.2605952 9.5636736,7.5825792 9.4928256,7.7254272 L0.2998656,7.7254272 L0.2998656,0.4355712 L5.2580736,0.4355712 Z" id="Fill-11" fill="#FEFEFE" mask="url(#mask-2)"></path>
                </g>
                <path d="M0.08064,10.508832 C0.133632,10.008288 0.179136,9.722592 0.214272,9.651744 L9.407808,9.651744 L9.407808,16.9416 L4.235328,16.9416 C3.342528,16.9416 2.618496,16.798176 2.063808,16.513056 C1.510272,16.226208 1.081152,15.851232 0.7776,15.387552 C0.474624,14.92272 0.26784,14.403744 0.160704,13.832928 C0.053568,13.260384 -1.06794573e-13,12.688416 -1.06794573e-13,12.117024 C-1.06794573e-13,11.545056 0.026496,11.009376 0.08064,10.508832" id="Fill-14" fill="#F5F5F5"></path>
                <g id="Group-18" transform="translate(8.910374, 0.000000)">
                    <mask id="mask-4" fill="white">
                        <use xlink:href="#path-3"></use>
                    </mask>
                    <g id="Clip-17"></g>
                    <path d="M0.497664,4.4788032 C0.497664,3.5860032 0.641088,2.8619712 0.926208,2.3072832 C1.213056,1.7543232 1.588032,1.3246272 2.051712,1.0216512 C2.516544,0.7180992 3.034944,0.5113152 3.606336,0.4047552 C4.17888,0.2970432 4.750848,0.2434752 5.321664,0.2434752 C5.894208,0.2434752 6.429888,0.2705472 6.929856,0.3241152 C7.430976,0.3771072 7.716672,0.4231872 7.78752,0.4577472 L7.78752,9.6512832 L0.497664,9.6512832 L0.497664,4.4788032 Z" id="Fill-16" fill="#FEFEFE" mask="url(#mask-4)"></path>
                </g>
                <path d="M16.6980096,21.8999808 C16.6980096,23.6873088 16.2608256,24.8755968 15.3847296,25.4648448 C14.5092096,26.0540928 13.3744896,26.3495808 11.9811456,26.3495808 C11.4097536,26.3495808 10.8734976,26.3311488 10.3729536,26.2954368 C9.8724096,26.2597248 9.5510016,26.2055808 9.4081536,26.1347328 L9.4081536,16.9417728 L16.6980096,16.9417728 L16.6980096,21.8999808 Z" id="Fill-19" fill="#F5F5F5"></path>
            </g>
        </g>
    </g>
</svg>